<svg xmlns="http://www.w3.org/2000/svg" version="1.1" xlink="http://www.w3.org/1999/xlink" xmlns:svgjs="http://svgjs.com/svgjs" width="100%" height="100%" viewBox="6.013999938964844 3 35.986000061035156 41"><g fill="#ffffff"><g color="#000" font-weight="400" font-family="sans-serif" stroke-width="2"><path style="line-height:normal;text-indent:0;text-align:start;text-decoration-line:none;text-decoration-style:solid;text-decoration-color:#000;text-transform:none;block-progression:tb;white-space:normal;isolation:auto;mix-blend-mode:normal;solid-color:#000;solid-opacity:1;" d="M21.006 3c-2.748 0-5.004 2.233-5.012 4.974v21.63c-2.526 2.091-3.62 5.508-2.636 8.696 1.044 3.38 4.142 5.702 7.646 5.7 3.504 0 6.6-2.324 7.64-5.706.98-3.187-.112-6.601-2.638-8.69V7.986C26.004 5.245 23.754 3 21.006 3zm-.002 2.006a2.979 2.979 0 0 1 3 2.985V30.52l.422.3c2.157 1.525 3.093 4.319 2.303 6.887-.79 2.567-3.105 4.294-5.725 4.294h-.002c-2.62 0-4.94-1.722-5.731-4.288-.792-2.566.147-5.366 2.303-6.894l.422-.299V7.986a2.983 2.983 0 0 1 3.008-2.98z" overflow="visible"></path><path style="line-height:normal;text-indent:0;text-align:start;text-decoration-line:none;text-decoration-style:solid;text-decoration-color:#000;text-transform:none;block-progression:tb;white-space:normal;isolation:auto;mix-blend-mode:normal;solid-color:#000;solid-opacity:1;" d="M21 32c-2.197 0-4 1.803-4 4s1.803 4 4 4 4-1.803 4-4-1.803-4-4-4zm0 2c1.116 0 2 .884 2 2s-.884 2-2 2-2-.884-2-2 .884-2 2-2z" overflow="visible"></path><path style="line-height:normal;text-indent:0;text-align:start;text-decoration-line:none;text-decoration-style:solid;text-decoration-color:#000;text-transform:none;block-progression:tb;white-space:normal;isolation:auto;mix-blend-mode:normal;solid-color:#000;solid-opacity:1;" d="M20.984 20A1 1 0 0 0 20 21.015v11.97a1 1 0 1 0 2 0v-11.97A1 1 0 0 0 20.984 20z" overflow="visible" fill-rule="evenodd" stroke-linecap="round" stroke-linejoin="round"></path><path style="line-height:normal;text-indent:0;text-align:start;text-decoration-line:none;text-decoration-style:solid;text-decoration-color:#000;text-transform:none;block-progression:tb;white-space:normal;isolation:auto;mix-blend-mode:normal;solid-color:#000;solid-opacity:1;" d="M31.967 4a1 1 0 0 0-.79.43s-.519.75-1.042 1.653c-.262.451-.527.943-.739 1.424C29.185 7.988 29 8.421 29 9c0 1.645 1.355 3 3 3s3-1.355 3-3c0-.578-.185-1.011-.396-1.493a14.677 14.677 0 0 0-.739-1.424c-.523-.902-1.043-1.653-1.043-1.653a1 1 0 0 0-.855-.43zM32 6.873c.066.11.067.1.135.215.238.411.473.853.636 1.225.164.372.229.713.229.688 0 .564-.436 1-1 1-.564 0-1-.436-1-1 0 .026.065-.316.229-.688.163-.372.398-.814.636-1.225.068-.116.069-.105.135-.215zM38.967 9a1 1 0 0 0-.79.43s-.519.75-1.042 1.653c-.262.451-.527.943-.739 1.424-.211.481-.396.914-.396 1.493 0 1.645 1.355 3 3 3s3-1.355 3-3c0-.578-.185-1.011-.396-1.493a14.677 14.677 0 0 0-.739-1.424c-.523-.902-1.043-1.653-1.043-1.653a1 1 0 0 0-.855-.43zM39 11.873c.066.11.067.1.135.215.238.411.473.853.636 1.225.164.372.229.713.229.688 0 .564-.436 1-1 1-.564 0-1-.436-1-1 0 .026.065-.316.229-.688.163-.372.398-.814.636-1.225.068-.116.069-.105.135-.215z" overflow="visible" stroke-linecap="round" stroke-linejoin="round"></path><path style="line-height:normal;text-indent:0;text-align:start;text-decoration-line:none;text-decoration-style:solid;text-decoration-color:#000;text-transform:none;block-progression:tb;white-space:normal;isolation:auto;mix-blend-mode:normal;solid-color:#000;solid-opacity:1;" d="M7.014 4a1 1 0 1 0 0 2h4.972a1 1 0 1 0 0-2H7.014zm0 24a1 1 0 1 0 0 2h4.972a1 1 0 1 0 0-2H7.014zm2-12a1 1 0 1 0 0 2h2.972a1 1 0 1 0 0-2H9.014zm-2-4a1 1 0 1 0 0 2h4.972a1 1 0 1 0 0-2H7.014zm2-4a1 1 0 1 0 0 2h2.972a1 1 0 1 0 0-2H9.014zm0 16a1 1 0 1 0 0 2h2.972a1 1 0 1 0 0-2H9.014zm-2-4a1 1 0 1 0 0 2h4.972a1 1 0 1 0 0-2H7.014z" overflow="visible" fill-rule="evenodd" stroke-linecap="round" stroke-linejoin="round"></path></g></g></svg>