
<svg version="1.1" xmlns="http://www.w3.org/2000/svg" xmlns:xlink="http://www.w3.org/1999/xlink" x="0px" y="0px" viewBox="0 0 1000 1000" enable-background="new 0 0 1000 1000" xml:space="preserve">
<metadata> Svg Vector Icons : http://www.onlinewebfonts.com/icon </metadata>
<g><g transform="translate(0.000000,511.000000) scale(0.100000,-0.100000)"><path d="M4093.6,4997.5c-437.5-92-825.6-442-953.5-854.8c-44.9-143.6-44.9-208.7-44.9-2797.7v-2651.9L2960.6-1446c-531.7-549.7-717.9-1348.4-480.1-2048.4c208.6-617,789.7-1126.3,1442.6-1265.4c190.7-40.4,531.7-40.4,722.4,0c632.7,134.6,1213.8,634.9,1426.9,1227.2c258,713.5,71.8,1548.1-466.7,2086.5l-132.4,132.4l-4.5,2696.8l-6.7,2699l-49.4,123.4c-152.6,370.2-493.6,675.3-872.7,774C4418.9,5011,4196.8,5020,4093.6,4997.5z M4609.6,4465.8c145.8-65.1,251.3-172.8,323.1-327.6l58.3-123.4l11.2-2795.5l11.2-2797.7L5157-1686c341-255.8,534-626,556.4-1063.5c15.7-307.4-26.9-507-163.8-785.2c-289.4-590.1-908.6-886.2-1575-749.4c-536.2,107.7-955.8,536.2-1092.6,1112.8c-42.6,184-42.6,511.5,0,679.8c85.2,325.3,287.2,630.5,545.2,818.9l139.1,101v2748.4c0,2454.5,4.5,2764.1,35.9,2874c71.8,242.3,260.3,417.3,509.3,468.9C4252.9,4548.8,4481.7,4524.2,4609.6,4465.8z"/><path d="M4225.9,936.7c-26.9-4.5-76.3-40.4-112.2-76.3l-65.1-67.3L4042-580l-4.5-1373.1l-150.3-78.5c-273.7-141.3-486.8-415.1-545.2-702.2c-96.5-471.2,298.4-1000.6,812.2-1094.9c464.4-83,980.4,309.6,1074.6,816.7c65.1,361.2-170.5,785.2-547.4,980.4l-150.3,78.5L4526.6-580l-6.7,1375.3l-67.3,65.1C4383,925.5,4309,952.4,4225.9,936.7z M4569.2-2484.7c136.8-89.7,192.9-224.4,181.7-430.8c-13.5-305.1-181.7-453.2-498.1-435.3c-305.1,13.4-453.2,181.7-435.2,498.1c9,199.7,76.3,318.6,224.4,392.6C4183.3-2388.3,4441.3-2399.5,4569.2-2484.7z"/><path d="M779.8,4701.4c-62.8-56.1-74-80.8-74-168.3c0-80.8,13.5-114.4,62.8-163.8l60.6-62.8l679.8-6.7c641.7-4.5,682.1-2.2,749.4,38.1c127.9,80.8,136.9,273.7,17.9,379.2c-58.3,49.4-65.1,49.4-740.4,49.4H851.6L779.8,4701.4z"/><path d="M6763.4,4717.1c-80.7-74-403.8-625.9-486.8-836.8c-132.4-338.8-78.5-585.6,172.8-816.7c291.7-264.8,637.2-267,935.6-4.5c219.9,195.2,293.9,480.1,197.4,747.1c-109.9,307.4-444.2,877.2-540.7,928.8C6947.4,4782.2,6830.7,4775.4,6763.4,4717.1z M7079.7,3790.5c78.5-161.5,92-237.8,53.8-336.5c-49.4-130.1-311.9-157.1-403.8-40.4c-85.2,109.9-58.3,251.3,105.5,540.7l78.5,143.6l47.1-76.3C6985.5,3981.2,7039.3,3878,7079.7,3790.5z"/><path d="M1334,3804c-163.8-69.6-204.2-269.2-80.8-390.4l69.6-71.8h448.7h448.7l67.3,69.6c101,98.7,101,233.3,2.2,332l-69.6,69.6l-421.8,4.5C1567.3,3819.7,1358.7,3812.9,1334,3804z"/><path d="M8477.5,3543.7c-107.7-58.3-459.9-659.6-558.7-953.5c-107.7-320.8,40.4-664.1,361.2-841.3c107.7-60.6,141.3-67.3,311.9-67.3c170.5,0,204.1,6.7,311.9,67.3c289.4,159.3,455.4,489.1,385.9,767.3c-67.3,262.5-450.9,944.5-574.3,1018.6C8634.5,3584.1,8558.3,3588.6,8477.5,3543.7z M8715.3,2675.5c121.2-228.8,139.1-347.8,74-448.7c-74-112.2-320.8-112.2-394.9,0c-65.1,98.7-44.9,219.9,71.8,448.7c60.5,114.4,114.4,206.4,123.4,206.4S8654.7,2789.9,8715.3,2675.5z"/><path d="M779.8,2794.4c-62.8-56.1-74-80.8-74-170.5s11.2-114.4,74-170.5l71.8-65.1h684.3c675.3,0,682,0,740.4,51.6c118.9,103.2,109.9,298.4-17.9,374.7c-67.3,42.6-116.7,44.9-738.1,44.9H851.6L779.8,2794.4z"/><path d="M1266.7,1845.3c-118.9-105.4-109.9-300.6,17.9-376.9c65.1-40.4,114.4-44.9,486.9-44.9c372.4,0,421.8,4.5,486.9,44.9c127.9,76.3,136.9,271.5,17.9,376.9c-56.1,47.1-74,49.4-504.8,49.4C1340.7,1894.7,1322.8,1892.5,1266.7,1845.3z"/><path d="M835.9,921c-74-33.7-141.3-134.6-141.3-215.4c0-83,67.3-181.7,145.8-215.4c103.2-42.6,1294.5-44.9,1377.5-2.2c152.6,78.5,188.5,267,71.8,383.7l-69.6,69.6l-657.4,4.5C1040.1,950.2,894.3,945.7,835.9,921z"/><path d="M1284.6-57.2c-127.9-76.3-136.9-271.5-17.9-374.7c56.1-49.3,74-51.6,504.8-51.6c430.8,0,448.7,2.3,504.8,51.6c118.9,103.2,109.9,298.4-17.9,374.7c-65.1,40.4-114.4,44.9-486.9,44.9C1399.1-12.3,1349.7-16.8,1284.6-57.2z"/><path d="M779.8-1042.1c-62.8-56.1-74-80.8-74-168.3c0-80.8,13.5-114.4,62.8-163.8l60.6-62.8l679.8-6.7c641.7-4.5,682.1-2.2,749.4,38.1c127.9,80.8,136.9,273.7,17.9,379.2c-58.3,49.4-65.1,49.4-740.4,49.4H851.6L779.8-1042.1z"/></g></g>
</svg>